<svg xmlns="http://www.w3.org/2000/svg" viewBox="0 0 1200 630" role="img" aria-label="Configureout — Commerce · Configurators">
  <title>Configureout</title>
  <rect width="1200" height="630" fill="#0fa392"/>
  <g opacity="0.08">
    <path d="M0 32 L1200 32 M0 96 L1200 96 M0 160 L1200 160 M0 224 L1200 224 M0 288 L1200 288 M0 352 L1200 352 M0 416 L1200 416 M0 480 L1200 480 M0 544 L1200 544 M0 608 L1200 608" stroke="#f7f5f1" stroke-width="1"/>
    <path d="M32 0 L32 630 M96 0 L96 630 M160 0 L160 630 M224 0 L224 630 M288 0 L288 630 M352 0 L352 630 M416 0 L416 630 M480 0 L480 630 M544 0 L544 630 M608 0 L608 630 M672 0 L672 630 M736 0 L736 630 M800 0 L800 630 M864 0 L864 630 M928 0 L928 630 M992 0 L992 630 M1056 0 L1056 630 M1120 0 L1120 630 M1184 0 L1184 630" stroke="#f7f5f1" stroke-width="1"/>
  </g>
  <g transform="translate(540, 180)">
    <rect x="0" y="0" width="120" height="24" fill="#f7f5f1"/>
    <rect x="0" y="28" width="24" height="72" fill="#f7f5f1"/>
    <rect x="0" y="104" width="120" height="24" fill="#f7f5f1"/>
    <circle cx="108" cy="64" r="10" fill="#0c1414"/>
  </g>
  <text x="600" y="420" text-anchor="middle"
        font-family="Sora, system-ui, sans-serif" font-weight="800" font-size="84"
        letter-spacing="-2.5" fill="#f7f5f1">configureout</text>
  <text x="600" y="490" text-anchor="middle"
        font-family="'JetBrains Mono', ui-monospace, monospace" font-weight="500" font-size="22"
        letter-spacing="6" fill="#0c1414">COMMERCE · CONFIGURATORS</text>
</svg>
